<svg xmlns="http://www.w3.org/2000/svg" version="1.2" viewBox="0 0 380 360" width="340" height="340">
    <g id="Background">
        <path id="Path 0" fill-rule="evenodd" fill="#fff" class="opacity-100" d="m188.75 43.09c1.79-0.05 4.71 0.51 6.5 1.25 1.79 0.74 16.75 9.23 33.25 18.86 16.5 9.63 42.38 24.61 57.5 33.28 15.13 8.68 28.96 16.84 30.75 18.15 1.79 1.3 4.23 4.28 5.44 6.62 1.81 3.52 2.26 6.4 2.61 16.75 0.35 10.18 0.11 13.24-1.26 16.5-0.93 2.2-5.34 9.18-9.79 15.5-4.46 6.32-18.99 26.8-32.3 45.5-13.31 18.7-25.04 34.71-26.08 35.58-1.03 0.87-12.35 7.62-25.15 15-12.81 7.38-23.5 14.1-23.76 14.92-0.26 0.82-0.58 6.77-0.72 13.2-0.14 6.82 0.18 12.11 0.76 12.69 0.66 0.65 15.79-7.52 44.5-24.02 23.93-13.75 44.07-25.75 44.77-26.68 0.92-1.23 1.25-6.75 1.22-20.19-0.04-17.65 0.06-18.66 2.25-22 1.26-1.93 5.1-5.41 8.53-7.75 4.21-2.87 7.28-4.25 9.48-4.23 1.79 0 3.93 0.44 4.75 0.96 0.98 0.63 1.74 3.46 2.19 8.24 0.38 4 0.71 17.07 0.75 29.03 0.03 11.96-0.39 23.66-0.95 26-0.55 2.34-2.46 5.91-4.25 7.94-2.1 2.39-11.16 8.23-25.74 16.6-12.38 7.1-39.82 22.74-61 34.76-27.48 15.59-39.65 21.98-42.5 22.31-3.14 0.36-5.62-0.31-11.5-3.12-4.13-1.97-21-11.42-37.5-21.02-22.86-13.29-30.54-18.25-32.28-20.83-1.59-2.37-2.27-4.82-2.25-8.14 0.03-4.62 0.87-5.92 30.53-47.25 17.9-24.94 30.51-43.43 30.53-44.75 0.02-1.24-0.77-2.96-1.75-3.82-0.98-0.87-5.94-3.9-11.03-6.75-5.09-2.85-10.22-5.07-11.42-4.93-1.6 0.19-10.5 11.99-34.48 45.75-17.78 25.02-33.34 46.05-34.59 46.71-1.24 0.67-3.61 1.23-5.26 1.23-1.65 0.01-4.91-1.1-7.25-2.46-2.87-1.68-4.89-3.86-6.24-6.73-1.09-2.34-1.99-5.49-2-7 0-1.51 0.52-3.76 1.16-5 0.65-1.24 11.53-16.65 24.18-34.25 12.65-17.6 26.09-36.28 29.87-41.5 4.89-6.77 6.78-10.22 6.57-12-0.24-2.06-2.89-4.01-15.29-11.22-8.25-4.8-15.9-8.63-17-8.5-1.89 0.21-2.03 1.15-2.5 16.39-0.48 15.55-0.6 16.28-3 18.84-1.38 1.47-5.2 4.19-8.5 6.05-3.3 1.87-7.13 3.42-8.5 3.46-1.38 0.04-3.63-0.81-7.5-3.84l-0.35-30.34c-0.25-21.6 0.01-32.07 0.9-36.34 0.95-4.57 2.1-6.88 4.85-9.7 1.98-2.03 10.12-7.46 18.1-12.06 7.97-4.6 22.6-13.03 32.5-18.73 9.9-5.7 27.67-15.96 39.5-22.79 11.82-6.84 23.52-13.73 26-15.31 2.47-1.59 5.85-3.3 7.5-3.81 1.65-0.51 4.46-0.97 6.25-1.01zm-82.22 78.42c-3.83 2.15-6.87 4.16-6.76 4.45 0.12 0.3 7.98 5 17.47 10.46l17.26 9.92c3.87-5.14 6.35-8.14 8-9.97 1.65-1.83 11.1-7.98 21-13.67 9.9-5.68 25.99-15.03 35.75-20.77 9.76-5.73 17.74-10.65 17.74-10.93-0.01-0.28-5.74-3.75-12.75-7.73-8.02-4.55-13.85-7.22-15.74-7.22-2.08 0-14.09 6.4-39 20.77-19.8 11.42-39.14 22.53-42.97 24.69zm79.97 22.85c-11 6.45-20.81 12.72-21.79 13.93-0.99 1.22-1.77 2.66-1.74 3.21 0.03 0.55 5.11 3.87 11.29 7.37 6.78 3.85 12.43 6.39 14.24 6.4 2.11 0.02 15.61-7.18 45.69-24.37 34.61-19.78 42.47-24.65 41.5-25.73-0.65-0.73-7.04-4.66-14.19-8.74-7.15-4.08-13.23-7.41-13.5-7.41-0.28 0-9.73 5.31-21 11.8-11.28 6.5-29.5 17.08-40.5 23.54zm45.76 43.16c-15.7 9.06-24.59 14.77-25.25 16.23-0.57 1.27-1.01 10.71-1.01 21.75 0 14.94 0.29 19.5 1.25 19.48 0.69-0.01 7.43-3.72 14.99-8.25l13.74-8.23c39.61-55.8 50.94-72.09 50.74-72.2-0.2-0.12-7.09 3.72-15.3 8.52-8.2 4.8-25.83 15.01-39.16 22.7zm-87.61 101.41c-0.54 1.01-0.36 1.99 0.5 2.73 0.74 0.65 7.65 4.82 15.35 9.29 7.7 4.47 14.34 8.1 14.75 8.09 0.41-0.02 0.75-13.99 0.75-31.04 0-18.24-0.38-31-0.92-31-0.51 0-7.37 9.08-15.25 20.18-7.88 11.1-14.71 20.89-15.18 21.75z" />
    </g>
</svg>